<?xml version="1.0" standalone="no"?>
<!DOCTYPE svg PUBLIC "-//W3C//DTD SVG 20010904//EN"
 "http://www.w3.org/TR/2001/REC-SVG-20010904/DTD/svg10.dtd">
<svg version="1.0" xmlns="http://www.w3.org/2000/svg"
 width="512.000000pt" height="512.000000pt" viewBox="0 0 512.000000 512.000000"
 preserveAspectRatio="xMidYMid meet">
<metadata>
Created by potrace 1.11, written by Peter Selinger 2001-2013
</metadata>
<g transform="translate(0.000000,512.000000) scale(0.100000,-0.100000)"
fill="#000000" stroke="none">
<path d="M822 4147 c-59 -19 -128 -91 -172 -180 -164 -333 -111 -879 119
-1227 75 -115 230 -256 323 -294 l35 -15 7 -113 c22 -363 166 -686 419 -937
204 -203 441 -330 730 -393 145 -31 407 -31 554 0 503 108 910 463 1071 937
40 116 69 264 77 390 l7 101 42 17 c54 22 189 130 243 195 115 136 202 318
250 521 19 82 26 145 30 277 7 199 -4 297 -48 429 -79 236 -225 336 -384 261
-27 -12 -93 -51 -145 -86 -176 -115 -313 -174 -465 -199 -38 -6 -109 -17 -156
-25 -109 -18 -153 -38 -174 -81 -33 -71 1 -110 195 -221 163 -93 232 -139 285
-191 49 -47 94 -108 74 -100 -93 38 -125 42 -339 42 -247 0 -287 -8 -390 -77
-78 -52 -143 -138 -170 -225 -16 -51 -20 -93 -20 -194 0 -151 6 -168 94 -267
83 -92 99 -131 94 -213 -4 -55 -13 -81 -48 -146 -30 -54 -43 -90 -44 -118 0
-23 46 -197 107 -403 59 -199 107 -367 107 -373 0 -28 -232 -107 -381 -129
-134 -20 -380 -8 -499 23 -105 27 -266 91 -264 104 1 4 50 172 109 373 59 201
107 383 107 405 0 28 -14 67 -46 128 -40 76 -46 95 -46 148 0 76 15 109 92
195 93 107 100 129 96 298 -3 135 -4 144 -35 209 -43 90 -128 179 -208 217
-88 42 -180 53 -390 48 -183 -5 -183 -5 -299 -53 -30 -13 30 69 96 132 63 59
113 92 283 188 150 84 195 125 195 176 0 79 -49 104 -259 134 -220 32 -329 75
-548 217 -167 107 -221 124 -311 95z m253 -216 c196 -129 340 -187 532 -217
170 -26 167 -21 58 -82 -227 -127 -341 -222 -420 -352 -43 -71 -32 -77 -113
66 -81 142 -140 274 -163 360 -21 82 -43 280 -33 296 8 13 15 9 139 -71z
m3086 -184 c-25 -124 -69 -230 -168 -405 l-81 -143 -37 61 c-80 132 -175 214
-394 339 -68 39 -118 72 -110 75 8 2 63 11 123 20 117 17 279 67 373 115 32
16 114 66 183 110 l125 81 3 -79 c2 -50 -4 -114 -17 -174z m-2162 -658 c74
-37 133 -106 156 -181 9 -31 15 -91 15 -152 0 -89 -2 -102 -22 -123 -22 -23
-62 -30 -87 -14 -8 5 -18 35 -22 66 -14 105 -87 175 -183 177 -64 1 -110 -18
-150 -62 -42 -46 -56 -92 -56 -182 l0 -68 -196 0 -196 0 4 168 c4 186 17 233
81 300 90 94 116 101 378 102 l216 0 62 -31z m1654 15 c62 -21 139 -92 171
-156 25 -50 26 -59 26 -225 l0 -173 -190 0 -190 0 0 63 c0 134 -51 217 -148
242 -70 19 -150 -3 -194 -52 -25 -27 -48 -87 -48 -124 0 -64 -67 -92 -111 -48
-20 20 -21 30 -17 147 3 107 7 134 26 169 35 67 78 110 144 143 l61 30 212 0
c167 0 221 -3 258 -16z m-1759 -396 c9 -12 16 -38 16 -58 1 -19 7 -46 15 -60
8 -14 14 -28 15 -32 0 -5 -36 -8 -81 -8 l-81 0 4 76 c3 60 7 79 23 90 29 21
71 17 89 -8z m1420 6 c12 -11 16 -35 16 -85 l0 -69 -74 0 -75 0 15 35 c7 19
14 49 14 66 0 18 7 41 17 51 20 22 66 24 87 2z m23 -824 l2 -535 -40 -28 c-23
-16 -43 -26 -45 -24 -8 8 -204 685 -204 706 0 12 10 38 23 59 68 108 89 251
52 345 -7 16 0 17 101 15 l109 -3 2 -535z m-1687 53 l-1 -478 -35 40 c-217
245 -344 554 -344 838 l0 77 190 0 190 0 0 -477z m336 445 c-17 -84 -17 -109
-2 -169 9 -35 32 -95 51 -132 19 -37 35 -74 35 -81 0 -14 -200 -699 -205 -705
-2 -2 -22 10 -44 25 l-41 29 0 533 0 532 106 0 107 0 -7 -32z m1861 -85 c-15
-283 -137 -574 -322 -770 l-54 -58 -1 473 0 472 192 0 191 0 -6 -117z"/>
<path d="M2072 3689 c-73 -37 -142 -152 -142 -237 0 -129 142 -250 336 -289
148 -29 224 2 224 89 -1 94 -72 243 -164 345 -91 100 -177 131 -254 92z m97
-124 c57 -29 158 -173 186 -264 7 -24 7 -24 -46 -17 -72 9 -183 61 -219 103
-19 21 -30 45 -30 64 0 36 33 104 57 118 23 13 19 13 52 -4z"/>
<path d="M2935 3698 c-112 -39 -249 -221 -290 -386 -23 -88 -10 -125 51 -148
119 -45 371 45 458 165 29 40 31 49 31 125 0 70 -4 87 -27 126 -33 57 -73 95
-120 114 -42 18 -61 19 -103 4z m88 -148 c14 -16 31 -46 37 -66 11 -32 10 -42
-5 -71 -24 -43 -93 -88 -173 -113 -74 -23 -112 -25 -112 -7 0 23 67 151 101
194 37 45 95 93 115 93 7 0 23 -13 37 -30z"/>
<path d="M2427 2710 c-69 -9 -97 -31 -97 -75 0 -56 11 -58 232 -58 183 0 203
2 215 19 19 26 16 68 -6 88 -34 31 -204 44 -344 26z"/>
<path d="M2422 2469 c-143 -21 -242 -83 -242 -153 0 -121 131 -277 268 -317
l42 -12 0 -78 0 -78 -43 -25 c-62 -36 -100 -42 -146 -21 -48 21 -79 17 -103
-16 -32 -42 -16 -76 50 -106 77 -36 164 -30 250 17 l61 34 71 -37 c60 -31 82
-37 134 -37 73 0 143 30 166 72 13 25 13 29 -6 55 -24 32 -58 35 -131 12 -39
-12 -45 -11 -100 17 l-58 30 -3 80 -3 80 53 17 c103 33 212 141 244 243 22 66
13 115 -26 148 -82 69 -290 101 -478 75z"/>
</g>
</svg>
