<?xml version="1.0" encoding="utf-8"?>
<!-- Generator: Adobe Illustrator 20.1.0, SVG Export Plug-In . SVG Version: 6.00 Build 0)  -->
<svg version="1.1" id="Layer_1" xmlns="http://www.w3.org/2000/svg" xmlns:xlink="http://www.w3.org/1999/xlink" x="0px" y="0px"
	 width="35.9151306px" height="35.0295868px" viewBox="0 0 35.9151306 35.0295868"
	 style="enable-background:new 0 0 35.9151306 35.0295868;" xml:space="preserve">
<style type="text/css">
	.st0{fill:#FFFFFF;}
</style>
<path class="st0" d="M17.9575653,0C8.0405693,0,0,8.0405693,0,17.9575653c0,7.9353485,5.1448421,14.6650505,12.2811508,17.0390625
	c0.8976669,0.1644249,1.2253923-0.3901901,1.2253923-0.8636818c0-0.427475-0.016449-1.8435249-0.0252171-3.3429127
	c-4.9935713,1.0850658-6.0490689-2.1175556-6.0490689-2.1175556c-0.8176298-2.0737114-1.99371-2.6261177-1.99371-2.6261177
	c-1.631999-1.1135788,0.1238089-1.0916576,0.1238089-1.0916576c1.8029819,0.1249313,2.7522068,1.8501186,2.7522068,1.8501186
	c1.6024323,2.7444916,4.2044201,1.9509563,5.2259321,1.4906197c0.1632309-1.1574211,0.6279535-1.9509563,1.1398849-2.3981419
	c-3.9862995-0.4537449-8.1797419-1.9947987-8.1797419-8.8757725c0-1.9619331,0.7003798-3.5621214,1.8468237-4.8192911
	c-0.1830482-0.4559536-0.8012161-2.2830658,0.1775408-4.7546158c0,0,1.5059805-0.4822588,4.9387512,1.8413515
	c1.4314146-0.4000473,2.9669962-0.5973349,4.4937754-0.6039286c1.525692,0.0065947,3.0623245,0.2060566,4.495985,0.6061039
	c3.4262466-2.3257856,4.9344025-1.8413525,4.9344025-1.8413525c0.9820538,2.4737606,0.3638859,4.2986631,0.1797504,4.7524414
	c1.1508274,1.2571697,1.8457355,2.8573923,1.8457355,4.8192911c0,6.89851-4.2000351,8.4176083-8.2005749,8.8626194
	c0.6466827,0.5567894,1.2187996,1.6484489,1.2187996,3.3232021c0,2.4003506-0.0241299,4.3359451-0.0241299,4.9278069
	c0,0.4778748,0.3266048,1.0368385,1.2363377,0.8614731c7.1308708-2.3783951,12.2712955-9.1080971,12.2712955-17.0390625
	C35.9151306,8.0405693,27.8745594,0,17.9575653,0z"/>
</svg>
