<?xml version="1.0" encoding="utf-8"?>
<!-- Generator: Adobe Illustrator 20.1.0, SVG Export Plug-In . SVG Version: 6.00 Build 0)  -->
<svg version="1.1" id="Layer_1" xmlns="http://www.w3.org/2000/svg" xmlns:xlink="http://www.w3.org/1999/xlink" x="0px" y="0px"
	 width="35.9151306px" height="29.1885853px" viewBox="0 0 35.9151306 29.1885853"
	 style="enable-background:new 0 0 35.9151306 29.1885853;" xml:space="preserve">
<style type="text/css">
	.st0{fill:#FFFFFF;}
</style>
<path class="st0" d="M11.2950649,29.1885853c13.5534248,0,20.9652004-11.2285919,20.9652004-20.9651737
	c0-0.3190885-0.0064774-0.636693-0.0210609-0.9526167c1.4386139-1.0400271,2.6893044-2.3377371,3.6759262-3.815212
	c-1.3203545,0.5864613-2.7411461,0.981786-4.2315998,1.1599691c1.5212307-0.9120753,2.6892948-2.3555353,3.2401218-4.0760589
	c-1.4240417,0.8440454-3.0003605,1.4579955-4.6787376,1.7885536C28.9002628,0.8958589,26.9853516,0,24.8663139,0
	c-4.0695953,0-7.3696632,3.3000436-7.3696632,7.3679943c0,0.5783534,0.0648041,1.1405888,0.1911736,1.6800814
	C11.5639839,8.7402601,6.1335435,5.8079543,2.4997528,1.3495234C1.8662986,2.4381995,1.5017873,3.7034767,1.5017873,5.053
	c0,2.5564609,1.3009113,4.8132148,3.279007,6.1334691c-1.208569-0.037179-2.3442261-0.369319-3.3373218-0.9217653
	c-0.0016191,0.0307522-0.0016191,0.0616026-0.0016191,0.0939369c0,3.5689983,2.5402567,6.5482731,5.9115934,7.2239246
	c-0.6188569,0.1683941-1.2701221,0.2591667-1.9424491,0.2591667c-0.4746766,0-0.9363999-0.0469685-1.3851571-0.1328964
	c0.9380188,2.9274616,3.6581025,5.0578461,6.8836398,5.1178665c-2.5224342,1.9764271-5.6993709,3.1541939-9.1517153,3.1541939
	c-0.5945696,0-1.1810308-0.0340137-1.7577647-0.1020432C3.2611711,27.9686947,7.1331282,29.1885853,11.2950649,29.1885853"/>
</svg>
