<?xml version="1.0" encoding="utf-8"?>
<!-- Generator: Adobe Illustrator 20.1.0, SVG Export Plug-In . SVG Version: 6.00 Build 0)  -->
<svg version="1.1" id="Layer_1" xmlns="http://www.w3.org/2000/svg" xmlns:xlink="http://www.w3.org/1999/xlink" x="0px" y="0px"
	 width="174.3828278px" height="126.5338974px" viewBox="0 0 174.3828278 126.5338974"
	 style="enable-background:new 0 0 174.3828278 126.5338974;" xml:space="preserve">
<style type="text/css">
	.st0{fill:#333333;}
	.st1{fill:#FF5C64;}
	.st2{fill:#FFFFFF;}
</style>
<path class="st0" d="M0,23.3928413h80.8115463v35.0892258H58.4820404V43.5957298H34.0259132v22.3295097h21.2661972v19.1395721
	H34.0259132v23.3928146h10.6330986v18.0762711H0v-18.0762711h10.6330986V43.5957298H0V23.3928413z"/>
<polygon class="st1" points="133.977066,0 128.6605377,0 0.0000136,0 0.0000136,14.8863525 128.6605377,14.8863525 
	128.6605377,47.848938 174.3828278,47.848938 174.3828278,0 "/>
<path class="st0" d="M88.254715,23.3928413h31.8992996v58.4820442h12.2815323l4.7314301-7.3428268V55.2921371h37.2158356v19.1395798
	h-13.0684204l-13.2075653,15.4374466l13.480896,16.4618454h11.731781v20.2028885h-19.1906586l-22.9934998-29.7726746h-10.9813309
	v11.6964035h7.4431686v18.0762711H88.254715v-18.0762711h11.6964111V41.4691086H88.254715V23.3928413z"/>
<path class="st2" d="M135.0403442,28.7093906v-5.3165493h13.8230286v5.3165493H135.0403442z"/>
<path class="st2" d="M153.1166229,34.0259399h3.1899261V17.2817364l-5.3165436,3.0165348v-7.5528564l9.3423004-5.338973
	l3.4174042,0.0435395v26.5759583h3.1899414v6.3798599h-13.8230286V34.0259399z"/>
</svg>
