<svg xmlns="http://www.w3.org/2000/svg" viewBox="0 0 337.74 246.79"><title>logo</title><path d="M165.72,173.26c-10,1-21.32,8.49-21.46,17.33-.09,6.35,5.63,11.27,8.29,13.55,2.1,1.81,7.47,6.28,15.44,6.39,8.41.12,14.09-4.69,16.57-6.79,3.22-2.73,8.71-7.38,8.65-13.18C193.12,181.21,178.64,172,165.72,173.26Z" style="fill:#33302c"/><path d="M337.73,22.73l-.07-11.89-11-4.6A80.11,80.11,0,0,0,296,0a77.48,77.48,0,0,0-20,2.65c-20.28,5.43-34,17.89-41.81,27.17a171,171,0,0,0-29.83-9.21,163.16,163.16,0,0,0-33.8-3.22h-3.31a163.16,163.16,0,0,0-33.79,3.22,170.65,170.65,0,0,0-29.82,9.22C95.78,20.55,82.06,8.08,61.77,2.65A77.48,77.48,0,0,0,41.75,0,80.09,80.09,0,0,0,11,6.25l-11,4.6L0,22.73A277.08,277.08,0,0,0,6.8,85.59C10.47,101.78,18,127.27,41,161.6l0,.07,0,.07a231.81,231.81,0,0,0,44.08,48.15l.1.08.1.08c19.42,15.5,46,36.73,80.59,36.73,1,0,1.92,0,2.88,0s2,.05,2.93.05c15.31,0,30.28-4.07,45.76-12.43,15.27-8.25,28.36-17.5,36.95-26.09,6.88-6.19,13.56-12.77,19.85-19.56a307.52,307.52,0,0,0,22.37-27.12l.25-.35.24-.36c23-34.8,30.53-67.86,33.73-82C334.36,63.84,337.89,48.26,337.73,22.73ZM313.39,74.92c-2.86,12.62-9.35,41.13-28.3,71.51a32.79,32.79,0,0,0-3.69-13.72l-.16-.3c-7.92-14.92-20.56-23.23-30.16-27.68a6,6,0,0,0-8.19,7.17A164.11,164.11,0,0,1,247.59,131c1.53,10.85,5.34,37.75-8.58,60.79-4.37,7.23-9.66,12.73-13.2,16.52A193.48,193.48,0,0,1,209,218.52c-11.28,6.1-23.56,10.27-37.2,10.27q-1.32,0-2.66-.05h-.54c-.88,0-1.75.05-2.62.05-21.5,0-39.57-10.31-55.7-22.2a89.56,89.56,0,0,1-11.56-14.76c-13.91-23-10.11-49.94-8.58-60.79a164.11,164.11,0,0,1,4.69-19.13,6,6,0,0,0-8.19-7.17c-9.6,4.45-22.24,12.76-30.16,27.68l-.16.3a32.8,32.8,0,0,0-3.69,13.8c-18.71-29.21-25.11-50.87-28.29-64.9A258.9,258.9,0,0,1,18,22.84,61.69,61.69,0,0,1,41.75,18a59.26,59.26,0,0,1,15.37,2c21,5.61,33,21.07,37.27,27.45l3.2,4.84,5.24-2.49a154.21,154.21,0,0,1,34.28-11.62,145.59,145.59,0,0,1,30.09-2.84h3.31a145.59,145.59,0,0,1,30.09,2.84,154.14,154.14,0,0,1,34.28,11.6l5.24,2.5,3.2-4.84c4.22-6.39,16.3-21.84,37.27-27.45A59.27,59.27,0,0,1,296,18a61.69,61.69,0,0,1,23.75,4.84C319.88,46.29,316.73,60.18,313.39,74.92Z" style="fill:#33302c"/><path d="M60.5,38.08A46.52,46.52,0,0,0,32.6,37,146.27,146.27,0,0,0,49,107.8,86.94,86.94,0,0,1,84.5,58.08,46.84,46.84,0,0,0,60.5,38.08Z" style="fill:#33302c"/><path d="M277.87,37.42a46.84,46.84,0,0,0-24,20,86.94,86.94,0,0,1,35.5,49.72,146.27,146.27,0,0,0,16.4-70.81A46.52,46.52,0,0,0,277.87,37.42Z" style="fill:#33302c"/><path d="M151.51,151.13c2.44-3.58-.1-9-1.24-11.62-1-2.28-6.85-14.93-18.78-14.92-9.69,0-19,8-18.76,14.94.37,9.07,17,13.56,25.28,14.42C141.83,154.34,148.82,155.07,151.51,151.13Z" style="fill:#33302c"/><path d="M217.55,87.24c-13.21-4.88-30.63.2-34.6,10.29-1.54,3.93-1.43,9.6,1.57,12s7.6.76,12.8-.8c23.35-7,32.62-4.82,33.69-9.27C232,95.51,224.23,89.71,217.55,87.24Z" style="fill:#33302c"/><path d="M153.17,109.59c3-2.44,3.1-8.11,1.55-12-4-10.08-21.4-15.15-34.61-10.25-6.67,2.47-14.42,8.29-13.45,12.27,1.07,4.45,10.34,2.25,33.7,9.23C145.57,110.35,150.22,112,153.17,109.59Z" style="fill:#33302c"/><path d="M206.22,124.54c-11.93,0-17.77,12.66-18.76,14.94-1.14,2.63-3.66,8-1.22,11.63,2.69,3.94,9.69,3.2,13.5,2.8,8.24-.87,24.9-5.38,25.26-14.45C225.27,132.51,215.9,124.54,206.22,124.54Z" style="fill:#33302c"/></svg>